<svg width="95" height="68" viewBox="0 0 95 68" fill="none" xmlns="http://www.w3.org/2000/svg">
<path d="M92.9702 14.6504H1.38211V6.91054C1.38211 3.85717 3.8572 1.38208 6.91057 1.38208H87.4417C90.4951 1.38208 92.9702 3.85717 92.9702 6.91054V14.6504Z" fill="#F5AAB6"/>
<path d="M87.4417 66.6179H6.91057C3.8572 66.6179 1.38211 64.1428 1.38211 61.0894V14.6504H92.9702V61.0894C92.9702 64.1428 90.4951 66.6179 87.4417 66.6179Z" fill="#F5AAB6"/>
<path d="M10.2289 10.8488C11.7556 10.8488 12.9932 9.61118 12.9932 8.08454C12.9932 6.5579 11.7556 5.32031 10.2289 5.32031C8.70229 5.32031 7.46471 6.5579 7.46471 8.08454C7.46471 9.61118 8.70229 10.8488 10.2289 10.8488Z" fill="#CAF1E6"/>
<path d="M20.9466 10.8488C22.4732 10.8488 23.7108 9.61118 23.7108 8.08454C23.7108 6.5579 22.4732 5.32031 20.9466 5.32031C19.4199 5.32031 18.1824 6.5579 18.1824 8.08454C18.1824 9.61118 19.4199 10.8488 20.9466 10.8488Z" fill="#CAF1E6"/>
<path d="M31.6642 10.8488C33.1909 10.8488 34.4285 9.61118 34.4285 8.08454C34.4285 6.5579 33.1909 5.32031 31.6642 5.32031C30.1376 5.32031 28.9 6.5579 28.9 8.08454C28.9 9.61118 30.1376 10.8488 31.6642 10.8488Z" fill="#CAF1E6"/>
<path d="M70.4878 30.1058H61.8266C60.3 30.1058 59.0623 28.8682 59.0623 27.3416C59.0623 25.815 60.3 24.5774 61.8266 24.5774H70.4878C72.0144 24.5774 73.252 25.815 73.252 27.3416C73.252 28.8682 72.0144 30.1058 70.4878 30.1058Z" fill="#CAF1E6"/>
<path d="M84.6775 41.1627H61.8266C60.3 41.1627 59.0623 39.9251 59.0623 38.3985C59.0623 36.8719 60.3 35.6343 61.8266 35.6343H84.6775C86.2041 35.6343 87.4417 36.8719 87.4417 38.3985C87.4417 39.9251 86.2041 41.1627 84.6775 41.1627Z" fill="#CAF1E6"/>
<path d="M77.8895 52.2196H61.8266C60.3 52.2196 59.0623 50.982 59.0623 49.4554C59.0623 47.9288 60.3 46.6912 61.8266 46.6912H77.8895C79.4161 46.6912 80.6537 47.9288 80.6537 49.4554C80.6537 50.982 79.4161 52.2196 77.8895 52.2196Z" fill="#CAF1E6"/>
<path d="M87.4417 0H82.6023C81.8388 0 81.2202 0.618634 81.2202 1.38211C81.2202 2.14559 81.8388 2.76423 82.6023 2.76423H87.4417C89.7279 2.76423 91.5881 4.62437 91.5881 6.91057V13.2683H2.76423V6.91057C2.76423 4.62437 4.62418 2.76423 6.91057 2.76423H76.5339C77.2974 2.76423 77.916 2.14559 77.916 1.38211C77.916 0.618634 77.2974 0 76.5339 0H6.91057C3.09999 0 0 3.09999 0 6.91057V22.1472C0 22.9107 0.618818 23.5293 1.38211 23.5293C2.14541 23.5293 2.76423 22.9107 2.76423 22.1472V16.0325H91.5881V51.6664C91.5881 52.4298 92.2067 53.0485 92.9702 53.0485C93.7337 53.0485 94.3523 52.4298 94.3523 51.6664V6.91057C94.3523 3.09999 91.2523 0 87.4417 0Z" fill="black"/>
<path d="M92.9702 56.1128C92.2067 56.1128 91.5881 56.7314 91.5881 57.4949V61.0895C91.5881 63.3757 89.7279 65.2358 87.4417 65.2358H6.91057C4.62418 65.2358 2.76423 63.3757 2.76423 61.0895V28.0785C2.76423 27.315 2.14541 26.6964 1.38211 26.6964C0.618818 26.6964 0 27.315 0 28.0785V61.0895C0 64.9001 3.09999 68 6.91057 68H87.4417C91.2523 68 94.3523 64.9001 94.3523 61.0895V57.4949C94.3523 56.7316 93.7337 56.1128 92.9702 56.1128Z" fill="black"/>
<path d="M19.9913 30.03C19.4515 29.4905 18.5763 29.4905 18.0368 30.03L9.73118 38.3356C9.4719 38.5949 9.32632 38.9463 9.32632 39.3131C9.32632 39.6798 9.4719 40.031 9.73118 40.2905L17.9269 48.4862C18.1967 48.756 18.5505 48.8909 18.9042 48.8909C19.2578 48.8909 19.6116 48.756 19.8814 48.4862C20.4212 47.9463 20.4212 47.0713 19.8814 46.5316L12.6629 39.3132L19.9913 31.9849C20.5312 31.445 20.5312 30.57 19.9913 30.03Z" fill="black"/>
<path d="M38.5783 48.4861C38.8481 48.7559 39.2019 48.8908 39.5555 48.8908C39.9092 48.8908 40.263 48.7559 40.5328 48.4861L48.7287 40.2904C48.9878 40.0311 49.1334 39.6797 49.1334 39.3129C49.1334 38.9462 48.9878 38.595 48.7287 38.3355L40.423 30.0299C39.8832 29.4903 39.008 29.4903 38.4685 30.0299C37.9287 30.5699 37.9287 31.4448 38.4685 31.9846L45.797 39.3129L38.5785 46.5313C38.0385 47.0714 38.0385 47.9464 38.5783 48.4861Z" fill="black"/>
<path d="M24.3234 53.577C24.8808 53.577 25.4062 53.2372 25.6157 52.6849L35.4368 26.8121C35.7077 26.0984 35.3488 25.3003 34.6352 25.0294C33.9217 24.7583 33.1234 25.1175 32.8527 25.831L23.0315 51.7042C22.7607 52.4177 23.1196 53.2158 23.8332 53.4867C23.9946 53.5481 24.1603 53.577 24.3234 53.577Z" fill="black"/>
<path d="M6.08241 8.08457C6.08241 10.3708 7.94237 12.2309 10.2288 12.2309C12.5151 12.2309 14.3751 10.3708 14.3751 8.08457C14.3751 5.79837 12.5151 3.93823 10.2288 3.93823C7.94237 3.93823 6.08241 5.79837 6.08241 8.08457ZM11.6109 8.08457C11.6109 8.84676 10.9909 9.46669 10.2288 9.46669C9.46656 9.46669 8.84664 8.84676 8.84664 8.08457C8.84664 7.32238 9.46656 6.70246 10.2288 6.70246C10.9909 6.70246 11.6109 7.32238 11.6109 8.08457Z" fill="black"/>
<path d="M16.8002 8.08457C16.8002 10.3708 18.6602 12.2309 20.9466 12.2309C23.233 12.2309 25.0929 10.3708 25.0929 8.08457C25.0929 5.79837 23.233 3.93823 20.9466 3.93823C18.6602 3.93823 16.8002 5.79837 16.8002 8.08457ZM22.3287 8.08457C22.3287 8.84676 21.7088 9.46669 20.9466 9.46669C20.1844 9.46669 19.5645 8.84676 19.5645 8.08457C19.5645 7.32238 20.1844 6.70246 20.9466 6.70246C21.7088 6.70246 22.3287 7.32238 22.3287 8.08457Z" fill="black"/>
<path d="M27.5179 8.08457C27.5179 10.3708 29.3778 12.2309 31.6642 12.2309C33.9506 12.2309 35.8106 10.3708 35.8106 8.08457C35.8106 5.79837 33.9506 3.93823 31.6642 3.93823C29.3778 3.93823 27.5179 5.79837 27.5179 8.08457ZM33.0463 8.08457C33.0463 8.84676 32.4264 9.46669 31.6642 9.46669C30.902 9.46669 30.2821 8.84676 30.2821 8.08457C30.2821 7.32238 30.902 6.70246 31.6642 6.70246C32.4264 6.70246 33.0463 7.32238 33.0463 8.08457Z" fill="black"/>
<path d="M61.8266 31.4879H70.4878C72.774 31.4879 74.6342 29.6277 74.6342 27.3415C74.6342 25.0553 72.774 23.1952 70.4878 23.1952H61.8266C59.5404 23.1952 57.6802 25.0553 57.6802 27.3415C57.6802 29.6277 59.5404 31.4879 61.8266 31.4879ZM61.8266 25.9594H70.4878C71.25 25.9594 71.8699 26.5793 71.8699 27.3415C71.8699 28.1037 71.25 28.7236 70.4878 28.7236H61.8266C61.0644 28.7236 60.4444 28.1037 60.4444 27.3415C60.4444 26.5793 61.0644 25.9594 61.8266 25.9594Z" fill="black"/>
<path d="M61.8266 42.5449H84.6775C86.9637 42.5449 88.8239 40.6847 88.8239 38.3985C88.8239 36.1123 86.9637 34.2522 84.6775 34.2522H61.8266C59.5404 34.2522 57.6802 36.1123 57.6802 38.3985C57.6802 40.6847 59.5404 42.5449 61.8266 42.5449ZM61.8266 37.0164H84.6775C85.4397 37.0164 86.0596 37.6363 86.0596 38.3985C86.0596 39.1607 85.4397 39.7807 84.6775 39.7807H61.8266C61.0644 39.7807 60.4444 39.1607 60.4444 38.3985C60.4444 37.6363 61.0644 37.0164 61.8266 37.0164Z" fill="black"/>
<path d="M61.8266 53.6018H77.8895C80.1757 53.6018 82.0358 51.7416 82.0358 49.4554C82.0358 47.1692 80.1757 45.3091 77.8895 45.3091H61.8266C59.5404 45.3091 57.6802 47.1692 57.6802 49.4554C57.6802 51.7416 59.5404 53.6018 61.8266 53.6018ZM61.8266 48.0733H77.8895C78.6517 48.0733 79.2716 48.6932 79.2716 49.4554C79.2716 50.2176 78.6517 50.8375 77.8895 50.8375H61.8266C61.0644 50.8375 60.4444 50.2176 60.4444 49.4554C60.4444 48.6932 61.0644 48.0733 61.8266 48.0733Z" fill="black"/>
</svg>
