<?xml version="1.0" encoding="utf-8"?>
<!-- Generator: Adobe Illustrator 23.0.6, SVG Export Plug-In . SVG Version: 6.00 Build 0)  -->
<svg version="1.1" id="Capa_1" xmlns="http://www.w3.org/2000/svg" xmlns:xlink="http://www.w3.org/1999/xlink" x="0px" y="0px"
	 viewBox="0 0 512 512" style="enable-background:new 0 0 512 512;" xml:space="preserve">
<style type="text/css">
	.st0{fill:#F5AAB6;}
</style>
<path class="st0" d="M428.7,82.6c-95.1-95.1-249.2-95.1-344.5,0c-95.1,95.1-95.1,249.2,0,344.5c95.1,95.1,249.2,95.1,344.5,0
	C523.8,331.9,523.8,177.9,428.7,82.6z M418.4,392.3c-11.4-10.1-23.5-19.1-36.4-27c8.4-29.4,13.6-61.5,14.7-95.1h71.6
	C465,315.6,447.8,357.8,418.4,392.3L418.4,392.3z M44.3,270.4h71.6c1.1,33.4,6.2,65.7,14.7,95.1c-12.9,7.7-25,16.7-36.4,27
	C64.9,357.8,47.6,315.6,44.3,270.4z M94.3,117.3c11.4,10.1,23.5,19.1,36.4,27c-8.4,29.4-13.6,61.5-14.7,95.1H44.3
	C47.6,194,64.9,151.8,94.3,117.3z M240.8,147.4c-25.3-1.8-49.8-8.1-72.3-18.4c13.2-34,37.5-74.6,72.3-84.7V147.4L240.8,147.4z
	 M240.8,178.6v60.8H147c1.1-28.3,5.1-55.6,11.8-80.4C184.6,170,212.2,176.8,240.8,178.6z M240.8,270.4v60.8
	c-28.6,1.8-56.4,8.4-82.1,19.6c-6.6-25-10.7-52.1-11.8-80.4H240.8L240.8,270.4z M240.8,362.2v103c-34.9-10.1-59.1-50.7-72.3-84.7
	C191.1,370.1,215.5,364.1,240.8,362.2z M271.8,362.2c25.3,1.8,49.8,8.1,72.3,18.4c-13.2,34-37.5,74.6-72.3,84.7V362.2z M271.8,331
	v-60.8h93.8c-1.1,28.3-5.1,55.6-11.8,80.4C328.2,339.6,300.5,332.9,271.8,331L271.8,331z M271.8,239.2v-60.8
	c28.6-1.8,56.4-8.4,82.1-19.6c6.6,25,10.7,52.1,11.8,80.4L271.8,239.2L271.8,239.2z M271.8,147.4v-103
	c34.9,10.1,59.1,50.7,72.3,84.7C321.6,139.5,297.2,145.6,271.8,147.4z M341.6,60c19.8,8.6,38.4,20.6,55.1,35.1
	c-7.9,7-16.3,13.2-25,18.9C363.8,94.9,354.1,76.3,341.6,60z M141.1,114.2c-8.6-5.7-17.1-11.9-25-18.9c16.5-14.7,35.1-26.4,55.1-35.1
	C158.7,76.3,148.8,94.9,141.1,114.2L141.1,114.2z M141.1,395.5c7.7,19.1,17.6,37.8,30.1,54.2c-19.8-8.6-38.4-20.6-55.1-35.1
	C124,407.6,132.3,401.2,141.1,395.5z M371.7,395.5c8.6,5.7,17.1,11.9,25,18.9c-16.5,14.7-35.1,26.4-55.1,35.1
	C354.1,433.3,363.8,414.8,371.7,395.5L371.7,395.5z M396.7,239.2c-1.1-33.4-6.2-65.7-14.7-95.1c12.9-7.7,25-16.7,36.4-27
	c29.4,34.5,46.6,76.8,49.9,121.9h-71.6L396.7,239.2L396.7,239.2z"/>
</svg>
