<?xml version="1.0" encoding="utf-8"?>
<!-- Generator: Adobe Illustrator 23.0.6, SVG Export Plug-In . SVG Version: 6.00 Build 0)  -->
<svg version="1.1" id="Capa_1" xmlns="http://www.w3.org/2000/svg" xmlns:xlink="http://www.w3.org/1999/xlink" x="0px" y="0px"
	 viewBox="0 0 512 512" style="enable-background:new 0 0 512 512;" xml:space="preserve">
<style type="text/css">
	.st0{fill:#F5AAB6;}
</style>
<g>
	<path class="st0" d="M310.8,209.3h-11.2v41.1h11.2c15,0,26.9-5,26.9-20.8C337.7,214.3,325.8,209.3,310.8,209.3z"/>
	<path class="st0" d="M189.7,225.9l-16.2,51c9.9,3.8,22.1,3.9,32.3,0.2L190,225.9H189.7z"/>
	<path class="st0" d="M507.3,127.8H4.6c-2.6,0-4.6,2.1-4.6,4.6v241.8c0,5.5,4.5,10,10,10h250.2c1.2,0,2.4-0.5,3.3-1.4l247.1-247.1
		C513.6,132.8,511.5,127.8,507.3,127.8z M316,285.6h-16.5v49H224l-7.5-23.4c-17.8,5.7-37.3,5.3-53.8-0.2l-7.8,23.6h-46.3l5.1-13.6
		c-0.6,0.5-1.2,1-1.8,1.6C83.7,345.3,38.3,339.5,7.6,322l15.8-31.3c17,10.1,27.8,12.3,42.3,12.1c7.5-0.2,12.9-1.6,16.4-5.2
		c2.1-2.2,3.3-4.9,3.4-8c0.1-8.2-11.4-12-25.6-16.3C29.7,264,7.1,251.5,7.7,221.8C8.1,192,35.9,173.4,71,173.4h0.1
		c18.6,0,41.3,5.3,57.8,13.7L111.1,218c-18-8.7-27-9.5-37.3-10.1c-15.3-0.8-23,4.6-23.1,10.5c-0.1,7.1,14.4,13.7,28.2,18.1
		c20.9,6.6,47.3,15.4,51.3,41L168,176h44.2l44.6,121.3V176h51.1c48.8,0,71.7,17.4,71.7,55.3C379.5,265.3,355.9,285.6,316,285.6z"/>
</g>
</svg>
