<svg width="116" height="69" viewBox="0 0 116 69" fill="none" xmlns="http://www.w3.org/2000/svg">
<path d="M11.4882 2.60535C6.81265 2.60535 3.02148 6.39564 3.02148 11.0721V58.0778C3.02148 62.7543 6.81265 66.5446 11.4882 66.5446H24.4621V2.60535H11.4882Z" fill="#F5AAB6"/>
<path d="M105.063 2.60535H92.0889V66.5446H105.063C109.739 66.5446 113.53 62.7543 113.53 58.0778V11.0721C113.53 6.39564 109.738 2.60535 105.063 2.60535Z" fill="#F5AAB6"/>
<path d="M69.3568 2.60535H24.4621V66.5446H92.0889V2.60535" fill="#B9B9BD"/>
<path d="M79.6871 4.85055C79.5415 4.85055 79.3959 4.83651 79.2493 4.80755C79.1054 4.7786 78.9642 4.73561 78.8299 4.67946C78.6948 4.6233 78.5641 4.55399 78.4413 4.47327C78.3193 4.39168 78.2052 4.2978 78.1 4.19426C77.9964 4.09073 77.9043 3.97404 77.8209 3.85296C77.7402 3.72925 77.6709 3.5994 77.6148 3.46428C77.5586 3.32917 77.5156 3.18791 77.4867 3.04402C77.4568 2.89837 77.441 2.75273 77.441 2.60445C77.441 2.45793 77.4568 2.31228 77.4867 2.16576C77.5156 2.02274 77.5586 1.88061 77.6148 1.74637C77.6709 1.61125 77.7402 1.4814 77.8209 1.35769C77.9043 1.23661 77.9964 1.12167 78.1 1.01639C78.2052 0.912856 78.3193 0.820731 78.4413 0.73738C78.5641 0.656661 78.6948 0.587347 78.8299 0.531195C78.9642 0.475043 79.1054 0.432051 79.2493 0.403097C79.5397 0.344313 79.8381 0.344313 80.1276 0.403097C80.2715 0.432051 80.4127 0.475043 80.5479 0.531195C80.683 0.587347 80.8128 0.656661 80.9365 0.73738C81.0576 0.820731 81.1743 0.912856 81.2778 1.01639C81.3814 1.12167 81.4752 1.23661 81.556 1.35769C81.6376 1.4814 81.7069 1.61125 81.763 1.74637C81.8192 1.88061 81.8622 2.02274 81.8911 2.16576C81.9201 2.31228 81.9332 2.45793 81.9332 2.60445C81.9332 2.75273 81.9201 2.89837 81.8911 3.04402C81.8622 3.18791 81.8192 3.32917 81.763 3.46428C81.7069 3.5994 81.6376 3.72925 81.556 3.85296C81.4752 3.97404 81.3814 4.09073 81.2778 4.19426C81.1743 4.2978 81.0576 4.39168 80.9365 4.47327C80.8128 4.55399 80.683 4.6233 80.5479 4.67946C80.4127 4.73561 80.2715 4.7786 80.1276 4.80755C79.9819 4.83651 79.8354 4.85055 79.6871 4.85055Z" fill="black"/>
<path d="M33.4465 11.5898H83.1046V57.5603H33.4465V11.5898Z" fill="white"/>
<path d="M83.1046 59.8064H33.4465C32.2059 59.8064 31.2004 58.8009 31.2004 57.5603V11.5898C31.2004 10.3492 32.2059 9.34375 33.4465 9.34375H83.1046C84.3452 9.34375 85.3507 10.3492 85.3507 11.5898V57.5603C85.3507 58.8009 84.3452 59.8064 83.1046 59.8064ZM35.6926 55.3142H80.8585V13.8359H35.6926V55.3142Z" fill="black"/>
<path d="M18.2204 18.1405C18.2204 20.6139 16.2147 22.6187 13.7413 22.6187C11.268 22.6187 9.26318 20.6139 9.26318 18.1405C9.26318 15.6672 11.268 13.6615 13.7413 13.6615C16.2147 13.6615 18.2204 15.6672 18.2204 18.1405Z" fill="#CAF1E6"/>
<path d="M13.7413 24.8648C10.0335 24.8648 7.01709 21.8484 7.01709 18.1406C7.01709 14.4319 10.0335 11.4154 13.7413 11.4154C17.4492 11.4154 20.4656 14.4327 20.4656 18.1406C20.4656 21.8484 17.4492 24.8648 13.7413 24.8648ZM13.7413 15.9076C12.5104 15.9076 11.5093 16.9087 11.5093 18.1406C11.5093 19.3715 12.5104 20.3726 13.7413 20.3726C14.9723 20.3726 15.9734 19.3715 15.9734 18.1406C15.9734 16.9096 14.9723 15.9076 13.7413 15.9076Z" fill="black"/>
<path d="M107.288 51.1405C107.288 53.6139 105.283 55.6187 102.81 55.6187C100.336 55.6187 98.3306 53.6139 98.3306 51.1405C98.3306 48.6672 100.336 46.6615 102.81 46.6615C105.283 46.6615 107.288 48.6672 107.288 51.1405Z" fill="#CAF1E6"/>
<path d="M102.81 57.8648C99.1019 57.8648 96.0845 54.8484 96.0845 51.1406C96.0845 47.4319 99.101 44.4154 102.81 44.4154C106.517 44.4154 109.534 47.4327 109.534 51.1406C109.534 54.8484 106.517 57.8648 102.81 57.8648ZM102.81 48.9076C101.579 48.9076 100.577 49.9087 100.577 51.1406C100.577 52.3715 101.578 53.3726 102.81 53.3726C104.041 53.3726 105.042 52.3715 105.042 51.1406C105.042 49.9096 104.041 48.9076 102.81 48.9076Z" fill="black"/>
<path d="M105.063 0.359253H92.0889C90.8483 0.359253 89.8428 1.36473 89.8428 2.60535V64.2985H26.7082V4.85145H69.3568C70.5975 4.85145 71.6029 3.84597 71.6029 2.60535C71.6029 1.36473 70.5975 0.359253 69.3568 0.359253H11.4882C5.58081 0.359253 0.775391 5.16467 0.775391 11.0721V58.0778C0.775391 63.9852 5.58081 68.7907 11.4882 68.7907H105.063C110.969 68.7907 115.776 63.9852 115.776 58.0778V11.0721C115.776 5.16467 110.97 0.359253 105.063 0.359253ZM5.26759 58.0778V11.0721C5.26759 7.6424 8.05854 4.85145 11.4882 4.85145H22.216V64.2994H11.4882C8.05854 64.2985 5.26759 61.5084 5.26759 58.0778ZM111.283 58.0778C111.283 61.5084 108.492 64.2985 105.063 64.2985H94.335V4.85145H105.063C108.492 4.85145 111.283 7.64152 111.283 11.0721V58.0778Z" fill="black"/>
<path d="M17.8054 48.3494H15.9874V46.5324C15.9874 45.2917 14.9819 44.2863 13.7413 44.2863C12.5007 44.2863 11.4952 45.2917 11.4952 46.5324V48.3494H9.67817C8.43755 48.3494 7.43207 49.3549 7.43207 50.5955C7.43207 51.8361 8.43755 52.8416 9.67817 52.8416H11.4952V54.6587C11.4952 55.8993 12.5007 56.9048 13.7413 56.9048C14.9819 56.9048 15.9874 55.8993 15.9874 54.6587V52.8416H17.8054C19.046 52.8416 20.0514 51.8361 20.0514 50.5955C20.0514 49.3549 19.046 48.3494 17.8054 48.3494Z" fill="black"/>
<path d="M106.873 15.3494H105.056V13.5324C105.056 12.2917 104.05 11.2863 102.81 11.2863C101.569 11.2863 100.564 12.2917 100.564 13.5324V15.3494H98.7456C97.505 15.3494 96.4995 16.3549 96.4995 17.5955C96.4995 18.8361 97.505 19.8416 98.7456 19.8416H100.564V21.6587C100.564 22.8993 101.569 23.9048 102.81 23.9048C104.05 23.9048 105.056 22.8993 105.056 21.6587V19.8416H106.873C108.113 19.8416 109.119 18.8361 109.119 17.5955C109.119 16.3549 108.113 15.3494 106.873 15.3494Z" fill="black"/>
</svg>
