<svg width="60" height="60" viewBox="0 0 60 60" fill="none" xmlns="http://www.w3.org/2000/svg">
<path d="M0.000976562 30.001C0.000976562 41.8737 6.90025 52.1369 16.9089 57.0024L2.5976 17.7928C0.937844 21.521 0.000976562 25.6501 0.000976562 30.001ZM50.2525 28.4839C50.2525 24.7769 48.9224 22.2092 47.7793 20.212C46.2622 17.7369 44.8337 15.6511 44.8337 13.1778C44.8337 10.4231 46.9272 7.85349 49.8709 7.85349C50.0019 7.85349 50.1292 7.86892 50.2622 7.8747C44.9224 2.98602 37.8111 0 30.0039 0C19.521 0 10.3027 5.37831 4.93784 13.5248C5.64146 13.546 11.0159 13.3436 11.0159 13.3436L22.5456 48.428L29.1113 28.7402L23.76 13.1778H33.68L44.9745 48.1812L47.9721 38.1802C49.4892 34.2824 50.2525 31.0535 50.2525 28.4839ZM30.5263 32.6265L21.5239 58.7778C24.215 59.5663 27.0545 60 30.0019 60C33.493 60 36.8453 59.3947 39.9624 58.3017C39.8834 58.1725 39.8044 58.0337 39.7446 57.8872L30.5263 32.6265ZM56.3229 15.6067C56.454 16.5629 56.5253 17.5865 56.5253 18.6949C56.5253 21.7369 55.9528 25.1586 54.239 29.4361L45.0786 55.9287C53.9981 50.7277 59.9933 41.068 59.9933 30.001C59.9991 24.7826 58.6651 19.8786 56.3229 15.6067Z" fill="#F5AAB6"/>
</svg>
