<?xml version="1.0" encoding="utf-8"?>
<!-- Generator: Adobe Illustrator 23.0.6, SVG Export Plug-In . SVG Version: 6.00 Build 0)  -->
<svg version="1.1" id="Capa_1" xmlns="http://www.w3.org/2000/svg" xmlns:xlink="http://www.w3.org/1999/xlink" x="0px" y="0px"
	 viewBox="0 0 512 512" style="enable-background:new 0 0 512 512;" xml:space="preserve">
<style type="text/css">
	.st0{fill:#F5AAB6;}
</style>
<g>
	<path class="st0" d="M211.6,26.1c-2-3-5.3-4.8-8.9-4.8h-192C4.8,21.3,0,26.1,0,32v448c0,5.1,3.6,9.4,8.5,10.5
		c0.7,0.1,1.4,0.2,2.1,0.2c4.3,0,8.1-2.5,9.8-6.4l192-448C213.9,33,213.6,29.1,211.6,26.1z"/>
	<path class="st0" d="M265.9,188c-1.6-4-5.5-6.7-9.9-6.7l0,0c-4.3,0-8.2,2.6-9.8,6.5l-85.3,202.7c-2.3,5.4,0.3,11.7,5.7,14
		c1.3,0.6,2.7,0.8,4.1,0.8h77.9l29.4,78.4c1.6,4.2,5.5,6.9,10,6.9h85.3c5.9,0,10.7-4.8,10.7-10.7c0-1.4-0.3-2.7-0.8-4L265.9,188z"/>
	<path class="st0" d="M501.3,21.3h-192c-5.9,0-10.7,4.7-10.7,10.6c0,1.5,0.3,2.9,0.9,4.3l192,448c1.7,3.9,5.6,6.4,9.8,6.4
		c0.7,0,1.4-0.1,2.1-0.2c5-1,8.5-5.4,8.5-10.5V32C512,26.1,507.2,21.3,501.3,21.3z"/>
</g>
</svg>
