<?xml version="1.0" encoding="utf-8"?>
<!-- Generator: Adobe Illustrator 23.0.6, SVG Export Plug-In . SVG Version: 6.00 Build 0)  -->
<svg version="1.1" id="Capa_1" xmlns="http://www.w3.org/2000/svg" xmlns:xlink="http://www.w3.org/1999/xlink" x="0px" y="0px"
	 viewBox="0 0 56.45 55.61" style="enable-background:new 0 0 56.45 55.61;" xml:space="preserve">
<style type="text/css">
	.st0{fill:#F5AAB6;}
</style>
<g>
	<path class="st0" d="M39.98,5.29c0,0,0.97,9.01,11.54,11.62c0,0,3.5,1.64,0,3.43c0,0-7.82,0.97-11.54,10.13
		c0,0-0.38,3.28-1.64,3.05c0,0-1.86,0.45-2.01-2.09c0,0-1.71-8.41-10.95-11.03c0,0-2.53-0.15-2.09-2.16c0,0-0.74-1.04,4.17-2.16
		c0,0,6.78-2.38,9.01-10.8c0,0,0-2.53,2.53-1.79C39.01,3.51,39.56,3.51,39.98,5.29z"/>
	<path class="st0" d="M35.09,37.23c0,0,0.57,5.28,6.76,6.81c0,0,2.05,0.96,0,2.01c0,0-4.58,0.57-6.76,5.93c0,0-0.22,1.92-0.96,1.79
		c0,0-1.09,0.26-1.17-1.22c0,0-1-4.93-6.41-6.45c0,0-1.49-0.08-1.22-1.27c0,0-0.44-0.61,2.44-1.27c0,0,3.97-1.39,5.28-6.33
		c0,0,0-1.49,1.49-1.05C34.52,36.18,34.84,36.19,35.09,37.23z"/>
	<path class="st0" d="M15.85,20.4c0,0,0.69,6.49,8.31,8.36c0,0,2.52,1.18,0,2.46c0,0-5.63,0.69-8.31,7.29c0,0-0.27,2.36-1.18,2.2
		c0,0-1.34,0.32-1.45-1.5c0,0-1.23-6.06-7.88-7.93c0,0-1.83-0.11-1.5-1.56c0,0-0.54-0.75,3-1.56c0,0,4.88-1.71,6.49-7.77
		c0,0,0-1.83,1.83-1.29C15.16,19.12,15.55,19.13,15.85,20.4z"/>
</g>
</svg>
