<?xml version="1.0" encoding="utf-8"?>
<!-- Generator: Adobe Illustrator 23.0.6, SVG Export Plug-In . SVG Version: 6.00 Build 0)  -->
<svg version="1.1" id="Capa_1" xmlns="http://www.w3.org/2000/svg" xmlns:xlink="http://www.w3.org/1999/xlink" x="0px" y="0px"
	 viewBox="0 0 512 512" style="enable-background:new 0 0 512 512;" xml:space="preserve">
<style type="text/css">
	.st0{fill:#F5AAB6;}
</style>
<path id="path0_fill" class="st0" d="M191.3,501.5c45.1,0,81.9-36.6,81.9-81.9v-81.9h-81.9c-45.1,0-81.9,36.6-81.9,81.9
	S146,501.5,191.3,501.5z"/>
<path id="path1_fill" class="st0" d="M109.4,256c0-45.1,36.6-81.9,81.9-81.9h81.9v163.6h-81.9C146,337.9,109.4,301.3,109.4,256z"/>
<path id="path1_fill_1_" class="st0" d="M109.4,92.4c0-45.1,36.6-81.9,81.9-81.9h81.9v163.6h-81.9C146,174.1,109.4,137.5,109.4,92.4
	z"/>
<path id="path2_fill" class="st0" d="M273,10.5h81.9c45.1,0,81.9,36.6,81.9,81.9s-36.6,81.9-81.9,81.9H273V10.5z"/>
<path id="path3_fill" class="st0" d="M436.8,256c0,45.1-36.6,81.9-81.9,81.9S273,301.3,273,256s36.6-81.9,81.9-81.9
	S436.8,210.9,436.8,256z"/>
</svg>
