<svg width="111" height="148" viewBox="0 0 111 148" fill="none" xmlns="http://www.w3.org/2000/svg">
<path d="M73.9875 11.2319L105.373 117.119C106.576 121.18 104.26 125.448 100.199 126.652L46.275 142.635C42.2136 143.838 37.9461 141.522 36.7423 137.461L5.35714 31.5741C4.15331 27.5127 6.46942 23.2452 10.5309 22.0414L64.4547 6.05819C68.5161 4.85437 72.7836 7.17047 73.9875 11.2319Z" fill="#F3EFF0"/>
<path d="M59.3571 51.8317C65.1613 50.1113 70.6196 53.845 72.3465 59.6712C74.7352 67.7304 68.3386 75.4312 59.7239 89.0529C45.0778 82.3257 35.5179 79.3545 33.1292 71.2954C31.4023 65.4691 33.9443 59.3641 39.7485 57.6438C47.1998 55.4352 52.0956 63.3165 52.0956 63.3165C52.0956 63.3165 51.9059 54.0403 59.3571 51.8317Z" fill="#F5AAB6"/>
<path d="M72.3271 113.581C75.0355 112.779 77.8795 114.322 78.6823 117.031C79.4851 119.739 77.9416 122.583 75.2331 123.386L65.4288 126.292C62.7203 127.095 59.8764 125.551 59.0736 122.843C58.2708 120.134 59.8143 117.29 62.5227 116.487L72.3271 113.581Z" fill="#CAF1E6"/>
<path d="M32.774 34.1134C34.1277 33.7122 34.8998 32.2895 34.4986 30.9358C34.0973 29.5821 32.6747 28.81 31.321 29.2112C29.9673 29.6125 29.1952 31.0351 29.5964 32.3888C29.9977 33.7425 31.4203 34.5146 32.774 34.1134Z" fill="black"/>
<path d="M30.6781 72.0218C33.0356 79.9756 40.7031 83.3768 52.3095 88.5252C54.3321 89.4223 56.4235 90.3503 58.6569 91.3759C59.2388 91.6434 59.8744 91.6747 60.4504 91.504C61.0264 91.3332 61.5423 90.9606 61.8845 90.4192C63.198 88.3423 64.4462 86.4245 65.6532 84.5701C72.5792 73.9286 77.1551 66.8985 74.7976 58.9447C72.6525 51.7076 65.7518 47.2699 58.6306 49.3806C53.7618 50.8237 51.4974 54.5189 50.446 57.7513C47.8031 55.6139 43.8908 53.7495 39.022 55.1927C31.8996 57.3037 28.5331 64.7852 30.6781 72.0218ZM40.475 60.0948C45.9345 58.4766 49.7674 64.418 49.9291 64.674C50.5383 65.6462 51.7213 66.0939 52.8221 65.7676C53.9261 65.4404 54.675 64.4155 54.6516 63.2644C54.6501 63.1907 54.5653 55.9184 60.0837 54.2828C64.2757 53.0402 68.4938 55.6691 69.8954 60.3977C71.582 66.0879 67.7376 71.9949 61.3679 81.7811C60.5228 83.0798 59.6575 84.409 58.7615 85.8059C57.249 85.1229 55.799 84.4797 54.3828 83.8515C43.7094 79.117 37.2668 76.259 35.5802 70.5688C34.1786 65.8402 36.2829 61.3374 40.475 60.0948Z" fill="black"/>
<path d="M81.1333 116.304C79.9315 112.249 75.6551 109.928 71.6005 111.13L61.7962 114.036C57.7416 115.238 55.4207 119.514 56.6225 123.569C57.8243 127.624 62.1007 129.945 66.1553 128.743L75.9596 125.837C80.0142 124.635 82.3351 120.359 81.1333 116.304ZM61.5247 122.116C61.1241 120.765 61.8977 119.339 63.2492 118.938L73.0536 116.032C74.4051 115.632 75.8306 116.405 76.2312 117.757C76.6317 119.109 75.8581 120.534 74.5066 120.935L64.7022 123.841C63.3507 124.241 61.9252 123.468 61.5247 122.116Z" fill="black"/>
<path d="M52.3827 28.3013C53.7361 27.9001 54.5084 26.4772 54.1072 25.1237C53.7061 23.7702 52.2831 22.998 50.9296 23.3991L41.1253 26.3052C39.7718 26.7063 38.9996 28.1293 39.4007 29.4828C39.8019 30.8363 41.2248 31.6085 42.5783 31.2073L52.3827 28.3013Z" fill="black"/>
<path d="M73.9635 137.094C75.3172 136.693 76.0893 135.27 75.688 133.917C75.2868 132.563 73.8641 131.791 72.5104 132.192C71.1567 132.593 70.3846 134.016 70.7859 135.37C71.1871 136.723 72.6098 137.495 73.9635 137.094Z" fill="black"/>
<path d="M84.9936 133.825L100.925 129.103C106.331 127.5 109.426 121.798 107.824 116.392L76.4385 10.5054C74.8361 5.09927 69.1343 2.00469 63.7282 3.60708L9.80433 19.5902C4.39822 21.1926 1.30365 26.8945 2.90603 32.3006L34.2912 138.187C35.8936 143.594 41.5954 146.688 47.0015 145.086L62.9336 140.363C64.2873 139.962 65.0593 138.539 64.6581 137.186C64.257 135.832 62.8343 135.06 61.4806 135.461L45.5485 140.184C42.8455 140.985 39.9945 139.437 39.1933 136.734L7.8082 30.8476C7.007 28.1445 8.55429 25.2936 11.2573 24.4924L65.1812 8.50924C67.8842 7.70805 70.7352 9.25534 71.5364 11.9584L102.921 117.845C103.723 120.548 102.175 123.399 99.4723 124.2L83.5405 128.923C82.1871 129.324 81.4148 130.747 81.816 132.1C82.2172 133.454 83.6401 134.226 84.9936 133.825Z" fill="black"/>
</svg>
